<?xml version="1.0" encoding="utf-8"?>
<!-- Generator: Adobe Illustrator 23.0.1, SVG Export Plug-In . SVG Version: 6.00 Build 0)  -->
<svg version="1.1" id="Layer_1" xmlns="http://www.w3.org/2000/svg" xmlns:xlink="http://www.w3.org/1999/xlink" x="0px" y="0px"
	 viewBox="0 0 302 212" style="enable-background:new 0 0 302 212;" xml:space="preserve">
<style type="text/css">
	.st0{fill:#FDFDFD;}
	.st1{fill:#ACACAC;}
	.st2{fill:#FFFFFF;}
	.st3{font-family:'Montserrat-Medium';}
	.st4{font-size:28px;}
	.st5{fill:none;stroke:#ACACAC;stroke-width:2.3488;stroke-miterlimit:10;}
</style>
<title>Advertising &amp;amp; Promotion Disable-01</title>
<g>
	<path class="st0" d="M297,212H5c-2.8,0-5-2.2-5-5V5c0-2.8,2.2-5,5-5h292c2.8,0,5,2.2,5,5v202C302,209.8,299.8,212,297,212z"/>
	<g>
		<rect x="23.4" y="21.6" class="st1" width="255.1" height="59.8"/>
		<text transform="matrix(1 0 0 1 120.4214 60.5234)" class="st2 st3 st4">ADS</text>
		<g>
			<rect x="23.4" y="102.6" class="st1" width="170.6" height="8"/>
			<rect x="23.4" y="138.6" class="st1" width="155.5" height="8"/>
			<rect x="23.4" y="120.6" class="st1" width="141.5" height="8"/>
		</g>
		<rect x="215.7" y="101.7" class="st5" width="61.8" height="47"/>
		<polygon class="st1" points="221.4,144.2 233.4,129.1 244.9,142 258.4,122.3 271.7,144.2 		"/>
		<circle class="st1" cx="227.5" cy="115.8" r="4.6"/>
	</g>
</g>
</svg>
