<?xml version="1.0" encoding="utf-8"?>
<!-- Generator: Adobe Illustrator 23.0.1, SVG Export Plug-In . SVG Version: 6.00 Build 0)  -->
<svg version="1.1" id="Layer_1" xmlns="http://www.w3.org/2000/svg" xmlns:xlink="http://www.w3.org/1999/xlink" x="0px" y="0px"
	 viewBox="0 0 302 212" style="enable-background:new 0 0 302 212;" xml:space="preserve">
<style type="text/css">
	.st0{fill:#FFFFFF;}
	.st1{fill:#5B70CC;}
	.st2{font-family:'Montserrat-Medium';}
	.st3{font-size:28px;}
	.st4{fill:none;stroke:#5B70CC;stroke-width:2;stroke-miterlimit:10;}
</style>
<title>Advertising &amp;amp; Promotion</title>
<g>
	<path class="st0" d="M296,211H6c-2.8,0-5-2.2-5-5V6c0-2.8,2.2-5,5-5h290c2.8,0,5,2.2,5,5v200C301,208.7,298.8,211,296,211z"/>
	<rect x="23.4" y="21.5" class="st1" width="255.1" height="60"/>
	<text transform="matrix(1 0 0 1 120.4507 60.4836)" class="st0 st2 st3">ADS</text>
	<g>
		<rect x="23.4" y="102.5" class="st1" width="170.6" height="8"/>
		<rect x="23.4" y="138.5" class="st1" width="155.5" height="8"/>
		<rect x="23.4" y="120.5" class="st1" width="141.5" height="8"/>
	</g>
	<g>
		<rect x="215.7" y="101.6" class="st4" width="61.8" height="47"/>
		<polygon class="st1" points="221.5,144.2 233.4,129.1 244.9,141.9 258.4,122.3 271.7,144.2 		"/>
		<circle class="st1" cx="227.5" cy="115.7" r="4.6"/>
	</g>
</g>
</svg>
